<svg width="2000" height="2001" viewBox="0 0 2000 2001" fill="none" xmlns="http://www.w3.org/2000/svg">
<path d="M213.132 1598.84L965.207 278.844L1060.41 752.322C1065.17 766.67 1067.07 803.974 1036.61 838.409L213.132 1598.84Z" fill="white"/>
<path d="M1761.49 1592.51L242.358 1608.28L603.309 1287.41C613.302 1276.07 644.561 1255.62 689.657 1264.58L1761.49 1592.51Z" fill="white"/>
<path d="M981.899 274L1778.79 1567.44L1317.73 1423.65C1302.86 1420.93 1269.22 1404.7 1253.64 1361.44L981.899 274Z" fill="white"/>
<mask id="mask0_125_32" style="mask-type:alpha" maskUnits="userSpaceOnUse" x="0" y="0" width="2000" height="2001">
<path d="M280 10.0225H1720C1869.12 10.0225 1990 130.906 1990 280.022V1720.02C1990 1869.14 1869.12 1990.02 1720 1990.02H280C130.883 1990.02 10 1869.14 10 1720.02V280.022C10 130.906 130.883 10.0225 280 10.0225Z" stroke="#FEFEFE" stroke-width="20"/>
</mask>
<g mask="url(#mask0_125_32)">
<path d="M-185 1887.09L1907.54 -212L3295.63 1171.76L1203.09 3270.85L-185 1887.09Z" fill="white"/>
</g>
<mask id="mask1_125_32" style="mask-type:alpha" maskUnits="userSpaceOnUse" x="-1" y="0" width="2001" height="2000">
<rect x="9.99988" y="10" width="1980" height="1980" rx="270" stroke="white" stroke-width="20"/>
</mask>
<g mask="url(#mask1_125_32)">
<rect x="908.181" y="-1422.88" width="1539" height="3492.81" transform="rotate(44.8978 908.181 -1422.88)" fill="white"/>
</g>
</svg>
